<?xml version="1.0" encoding="utf-8"?>
<!-- Generator: Adobe Illustrator 21.0.1, SVG Export Plug-In . SVG Version: 6.00 Build 0)  -->
<svg version="1.1" id="Layer_1" xmlns="http://www.w3.org/2000/svg" xmlns:xlink="http://www.w3.org/1999/xlink" x="0px" y="0px"
	 viewBox="0 0 1442 800" style="enable-background:new 0 0 1442 800;" xml:space="preserve">
<style type="text/css">
	.st0{fill:#F8E71C;}
	.st1{fill:none;stroke:#FFFFFF;stroke-width:2;stroke-miterlimit:10;}
	.st2{clip-path:url(#SVGID_2_);fill:#F8E71C;}
	.st3{clip-path:url(#SVGID_2_);}
	.st4{fill:#FFFFFF;}
	.st5{clip-path:url(#SVGID_4_);fill:#F8E71C;}
	.st6{clip-path:url(#SVGID_4_);}
</style>
<g>
	<defs>
		<polygon id="SVGID_3_" points="719.8,0 0,397 0,798 1439,798 1439,397 1439.6,397 		"/>
	</defs>
	<clipPath id="SVGID_2_">
		<use xlink:href="#SVGID_3_"  style="overflow:visible;"/>
	</clipPath>
	<rect x="-9.1" y="-9" class="st2" width="1456.2" height="808"/>
	<g class="st3">
		<rect x="718.8" y="0.5" class="st4" width="2" height="820"/>
	</g>
	<g class="st3">
		
			<rect x="-203.1" y="409.5" transform="matrix(0.67 -0.7423 0.7423 0.67 -189.4391 394.8083)" class="st4" width="1105.1" height="2"/>
	</g>
	<g class="st3">
		
			<rect x="1088.4" y="-141.5" transform="matrix(0.7427 -0.6696 0.6696 0.7427 5.3905 835.0302)" class="st4" width="2" height="1104"/>
	</g>
	<g class="st3">
		<g>
			<rect x="-33" y="747.5" class="st4" width="1504" height="2"/>
		</g>
		<g>
			<rect x="-33" y="605.4" class="st4" width="1504" height="2"/>
		</g>
		<g>
			<rect x="-33" y="463.3" class="st4" width="1504" height="2"/>
		</g>
		<g>
			<rect x="-33" y="321.2" class="st4" width="1504" height="2"/>
		</g>
		<g>
			<rect x="-33" y="179.1" class="st4" width="1504" height="2"/>
		</g>
		<g>
			<rect x="-33" y="37" class="st4" width="1504" height="2"/>
		</g>
	</g>
</g>
</svg>
