<?xml version="1.0" encoding="utf-8"?>
<!-- Generator: Adobe Illustrator 21.0.1, SVG Export Plug-In . SVG Version: 6.00 Build 0)  -->
<svg version="1.1" id="Layer_1" xmlns="http://www.w3.org/2000/svg" xmlns:xlink="http://www.w3.org/1999/xlink" x="0px" y="0px"
	 viewBox="0 0 1442 800" style="enable-background:new 0 0 1442 800;" xml:space="preserve">
<style type="text/css">
	.st0{fill:#F8E71C;}
	.st1{fill:none;stroke:#FFFFFF;stroke-width:2;stroke-miterlimit:10;}
	.st2{clip-path:url(#SVGID_2_);fill:#F8E71C;}
	.st3{clip-path:url(#SVGID_2_);}
	.st4{fill:#FFFFFF;}
	.st5{fill:url(#SVGID_3_);}
	.st6{fill:url(#SVGID_4_);}
	.st7{fill:url(#SVGID_5_);}
	.st8{fill:url(#SVGID_6_);}
	.st9{fill:url(#SVGID_7_);}
	.st10{fill:url(#SVGID_8_);}
	.st11{fill:url(#SVGID_9_);}
	.st12{opacity:0.13;}
</style>
<rect x="-1462" y="37" class="st4" width="1471" height="2"/>
<linearGradient id="SVGID_2_" gradientUnits="userSpaceOnUse" x1="-2210.6626" y1="255.7578" x2="-1490.0909" y2="255.7578" gradientTransform="matrix(-0.9924 0.1227 0.1227 0.9924 -2232.4421 91.5545)">
	<stop  offset="0" style="stop-color:#FFFFFF"/>
	<stop  offset="1" style="stop-color:#FFFFFF;stop-opacity:0.2"/>
</linearGradient>
<polygon style="fill:url(#SVGID_2_);" points="13,236.7 -742.1,1.8 -741.5,-0.2 12.7,234.5 "/>
<g class="st12">
	<rect x="1.1" class="st4" width="1440.9" height="2"/>
	<polygon class="st4" points="1442,21.8 1406,19.8 1.1,19.9 37.1,21.8 	"/>
	<polygon class="st4" points="1442,41.5 1370,39.6 1.1,39.7 73.1,41.6 	"/>
	<polygon class="st4" points="1442,61.2 1333.9,59.4 1.1,59.5 109.2,61.4 	"/>
	<polygon class="st4" points="1442,81 1297.9,79.2 1.1,79.4 145.2,81.2 	"/>
	<polygon class="st4" points="1442,100.8 1261.9,99 1.1,99.2 181.2,101 	"/>
	<polygon class="st4" points="1442,120.5 1225.9,118.8 1.1,119.1 217.2,120.8 	"/>
	<polygon class="st4" points="1442,140.2 1189.8,138.6 1.1,138.9 253.3,140.6 	"/>
	<polygon class="st4" points="1442,160 1153.8,158.4 1.1,158.8 289.3,160.4 	"/>
	<polygon class="st4" points="1442,179.8 1117.8,178.2 1.1,178.6 325.3,180.2 	"/>
	<polygon class="st4" points="1442,199.5 1081.8,198 1.1,198.5 361.3,200 	"/>
	<polygon class="st4" points="1442,219.2 1045.8,217.8 1.1,218.4 397.3,219.8 	"/>
	<polygon class="st4" points="1442,239 1009.7,237.6 1.1,238.2 433.4,239.6 	"/>
	<polygon class="st4" points="1442,258.8 973.7,257.4 1.1,258 469.4,259.4 	"/>
	<polygon class="st4" points="1442,278.5 937.7,277.2 1.1,277.9 505.4,279.2 	"/>
	<polygon class="st4" points="1442,298.2 901.7,297 1.1,297.8 541.4,299 	"/>
	<polygon class="st4" points="1442,318 865.6,316.8 1.1,317.6 577.5,318.8 	"/>
	<polygon class="st4" points="1442,337.8 829.6,336.6 1.1,337.5 613.5,338.6 	"/>
	<polygon class="st4" points="1442,357.5 793.6,356.4 1.1,357.3 649.5,358.4 	"/>
	<polygon class="st4" points="1442,377.2 757.6,376.2 1.1,377.1 685.5,378.2 	"/>
	<polygon class="st4" points="1442,397 721.6,396 1.1,397 721.6,398 	"/>
	<polygon class="st4" points="1442,416.8 685.5,415.8 1.1,416.9 757.6,417.8 	"/>
	<polygon class="st4" points="1442,436.5 649.5,435.6 1.1,436.7 793.6,437.6 	"/>
	<polygon class="st4" points="1442,456.2 613.5,455.4 1.1,456.5 829.6,457.4 	"/>
	<polygon class="st4" points="1442,476 577.5,475.2 1.1,476.4 865.6,477.2 	"/>
	<polygon class="st4" points="1442,495.8 541.4,495 1.1,496.2 901.7,497 	"/>
	<polygon class="st4" points="1442,515.5 505.4,514.8 1.1,516.1 937.7,516.8 	"/>
	<polygon class="st4" points="1442,535.2 469.4,534.6 1.1,536 973.7,536.6 	"/>
	<polygon class="st4" points="1442,555 433.4,554.4 1.1,555.8 1009.7,556.4 	"/>
	<polygon class="st4" points="1442,574.8 397.3,574.2 1.1,575.7 1045.8,576.2 	"/>
	<polygon class="st4" points="1442,594.5 361.3,594 1.1,595.5 1081.8,596 	"/>
	<polygon class="st4" points="1442,614.2 325.3,613.8 1.1,615.3 1117.8,615.8 	"/>
	<polygon class="st4" points="1442,634 289.3,633.6 1.1,635.2 1153.8,635.6 	"/>
	<polygon class="st4" points="1442,653.8 253.3,653.4 1.1,655 1189.8,655.4 	"/>
	<polygon class="st4" points="1442,673.5 217.2,673.2 1.1,674.9 1225.9,675.2 	"/>
	<polygon class="st4" points="1442,693.2 181.2,693 1.1,694.8 1261.9,695 	"/>
	<polygon class="st4" points="1442,713 145.2,712.8 1.1,714.6 1297.9,714.8 	"/>
	<polygon class="st4" points="1442,732.8 109.2,732.6 1.1,734.5 1333.9,734.6 	"/>
	<polygon class="st4" points="1442,752.5 73.1,752.4 1.1,754.3 1370,754.4 	"/>
	<polygon class="st4" points="1442,772.2 37.1,772.2 1.1,774.2 1406,774.2 	"/>
	<rect x="1.1" y="792" class="st4" width="1440.9" height="2"/>
</g>
</svg>
